<svg xmlns="http://www.w3.org/2000/svg" xmlns:xlink="http://www.w3.org/1999/xlink"><defs>
<symbol id="arrow-up">
<circle cx="12" cy="12" r="12" fill="#03b8ff" style="fill:#3a4164"/><path fill="#fff" d="m17.7 11.3-5-5c-.1-.1-.2-.2-.3-.2-.2-.1-.5-.1-.8 0-.1 0-.2.1-.3.2l-5 5c-.4.4-.4 1 0 1.4s1 .4 1.4 0L11 9.4V17c0 .6.4 1 1 1s1-.4 1-1V9.4l3.3 3.3c.4.4 1 .4 1.4 0 .4-.4.4-1 0-1.4z" style="fill:#fff"/>
</symbol>
<symbol id="check">
<path d="M393.401 124.425 179.603 338.208c-15.832 15.835-41.514 15.835-57.361 0L11.878 227.836c-15.838-15.835-15.838-41.52 0-57.358 15.841-15.841 41.521-15.841 57.355-.006l81.698 81.699L336.037 67.064c15.841-15.841 41.523-15.829 57.358 0 15.835 15.838 15.835 41.514.006 57.361z" style="fill:#4ce797"/>
</symbol>
<symbol id="close">
<path d="M21.71 20.29a1 1 0 0 1 0 1.42 1 1 0 0 1-1.42 0L12 13.41l-8.29 8.3a1 1 0 0 1-1.42 0 1 1 0 0 1 0-1.42l8.3-8.29-8.3-8.29a1 1 0 0 1 1.42-1.42l8.29 8.3 8.29-8.3a1 1 0 1 1 1.42 1.42L13.41 12z" data-name="79 Close" style="fill:#828282"/>
</symbol>
<symbol id="play">
<path fill="#2394BC" d="M143.027.004C64.04.004 0 64.036 0 143.022c0 78.996 64.04 143.027 143.027 143.027s143.027-64.031 143.027-143.027c0-78.977-64.04-143.018-143.027-143.018zm0 259.228c-64.183 0-116.209-52.026-116.209-116.209s52.026-116.21 116.209-116.21 116.209 52.026 116.209 116.209-52.026 116.21-116.209 116.21zm57.836-122.798-81.856-45.581c-5.962-3.638-11.827-.706-11.827 6.526v91.367c0 7.223 5.864 10.173 11.827 6.517l81.722-44.91c7.581-4.318 4.819-11.282.134-13.919z" style="fill:#fafafa"/>
</symbol>
</defs></svg>